# xmcd
#
# Track frame offsets: 
#        150
#        23627
#        45860
#        63820
#        92880
#        106435
#        121910
#        135342
#        155450
#        179747
#        201635
#        217917
#        233032
#        248625
#        265827
#        281597
#        300620
#        316647
#        328962
#
# Disc length: 4562 seconds
#
# Revision: 8
# Processed by: cddbd v1.5.2PL0 Copyright (c) Steve Scherf et al.
# Submitted via: ExactAudioCopyFreeDBPlugin 1.0
#
DISCID=0411d013
DTITLE=Various Artist - The all time greatest blues songs CD2
DYEAR=2001
DGENRE=Blues
TTITLE0=Tony Joe White - (You're Gonna Look) Good In Blues
TTITLE1=Canned Heat - On The Road Again
TTITLE2=Stevie Ray Vaughan - Cold Shot
TTITLE3=The Jeff Healey Band - I Think I Love You Too Much
TTITLE4=John Lee Hooker - One Bourbon, One Scotch, One Beer
TTITLE5=Cuby and The Blizzards - Window Of My Eyes
TTITLE6=Eddie Boyd With Peter Green - She's Real
TTITLE7=Buddy Guy - Damn Right, I've Got The Blues
TTITLE8=Barrelhouse - The Sudden Stop
TTITLE9=Keb Mo' - More Than One Way Home
TTITLE10=Billy Boy Arnold - I Wish You Would
TTITLE11=The Fabulous Thunderbirds - Tuff Enuff
TTITLE12=Taj Mahal - She Caught The Katy and Left Me A Mule To Ride
TTITLE13=Fleetwood Mac - Need Your Love So Bad
TTITLE14=Bobby Bland - Do What You Set Out To Do
TTITLE15=Livin' Blues - L.B. Boogie
TTITLE16=John Mayall - All Your Love
TTITLE17=Johnny Winter - Johnny B. Goode
TTITLE18=Eric Clapton - Blues Before Sunrise
EXTD=YEAR: 2001
EXTT0=
EXTT1=
EXTT2=
EXTT3=
EXTT4=
EXTT5=
EXTT6=
EXTT7=
EXTT8=
EXTT9=
EXTT10=
EXTT11=
EXTT12=
EXTT13=
EXTT14=
EXTT15=
EXTT16=
EXTT17=
EXTT18=
PLAYORDER=
